<svg width="40" height="40" viewBox="0 0 40 40" fill="none" xmlns="http://www.w3.org/2000/svg">
<path d="M4.26799 30.8271C1.41183 26.8659 0.155318 21.9906 0.745329 17.1591C1.33534 12.3276 3.72922 7.88914 7.45665 4.71572C11.1841 1.5423 15.9756 -0.136657 20.8898 0.0086993C25.8041 0.154055 30.4858 2.11322 34.0151 5.50128C37.5445 8.88935 39.6664 13.4614 39.9639 18.3191C40.2614 23.1769 38.7131 27.9692 35.6231 31.7545C32.5331 35.5398 28.1248 38.0445 23.2643 38.7765C18.4038 39.5085 13.4424 38.4148 9.35501 35.7104L10.9749 33.3114C14.4575 35.6156 18.6846 36.5474 22.8258 35.9238C26.9671 35.3001 30.723 33.1661 33.3557 29.9409C35.9885 26.7158 37.3077 22.6326 37.0542 18.4938C36.8007 14.3549 34.9928 10.4594 31.9857 7.57274C28.9787 4.68605 24.9898 3.01681 20.8028 2.89297C16.6158 2.76912 12.5333 4.19962 9.35747 6.90343C6.18164 9.60723 4.14202 13.3889 3.63932 17.5054C3.13662 21.6219 4.20718 25.7757 6.64068 29.1507L4.26799 30.8271Z" fill="white"/>
<path d="M3.6851 28.5142L6.63159 29.1892L5.15914 34.9249L10.5263 32.6486L14.0034 35.3255L0 40L3.6851 28.5142Z" fill="white"/>
<path d="M23.7187 23.773C23.0755 24.5209 22.3787 24.3517 22.1107 24.1736C17.6216 21.8364 15.9465 18.7646 15.6785 18.2304C15.4641 17.803 15.5892 17.4736 15.6785 17.3623C15.8795 17.1174 16.4021 16.4942 16.8845 15.9599C17.367 15.4257 17.3089 14.7579 17.2196 14.4908C16.7505 13.3333 15.7589 10.8982 15.5445 10.4174C15.2765 9.81636 13.5345 9.88314 12.9314 10.0835C12.3284 10.2838 10.3184 12.4875 10.5194 14.7579C10.7204 17.0284 13.2664 21.97 15.4775 23.773C17.6886 25.576 22.3117 29.3823 25.6618 29.0484C29.0119 28.7145 29.8829 27.2454 30.2849 26.1102C30.6065 25.202 30.4189 24.5298 30.2849 24.3072C29.1682 23.7062 26.774 22.424 26.1308 22.1035C25.4876 21.783 25.1928 21.97 25.1258 22.1035C24.9248 22.3484 24.3619 23.025 23.7187 23.773Z" fill="white"/>
</svg>
