<svg width="77" height="21" viewBox="0 0 77 21" fill="none" xmlns="http://www.w3.org/2000/svg">
<rect width="6.41667" height="0.4" transform="matrix(1 0 0 -1 61.4236 7.06944)" fill="white"/>
<rect width="6.41667" height="0.4" transform="matrix(1 0 0 -1 9.15973 7.06944)" fill="white"/>
<path d="M2.12 13.24C2.40267 13.24 2.61867 13.272 2.768 13.336C2.91733 13.4 3.048 13.4693 3.16 13.544C3.224 13.5813 3.27467 13.6107 3.312 13.632C3.35467 13.648 3.39467 13.656 3.432 13.656C3.48533 13.656 3.52267 13.6267 3.544 13.568C3.57067 13.5093 3.592 13.4213 3.608 13.304H3.792C3.78667 13.4 3.77867 13.5147 3.768 13.648C3.76267 13.776 3.75733 13.9467 3.752 14.16C3.752 14.3733 3.752 14.6533 3.752 15H3.568C3.552 14.7387 3.49333 14.4853 3.392 14.24C3.296 13.9947 3.152 13.7947 2.96 13.64C2.77333 13.4853 2.53333 13.408 2.24 13.408C1.968 13.408 1.74133 13.4907 1.56 13.656C1.384 13.816 1.296 14.0293 1.296 14.296C1.296 14.5307 1.35467 14.728 1.472 14.888C1.58933 15.0427 1.74933 15.1893 1.952 15.328C2.16 15.4613 2.39467 15.6107 2.656 15.776C2.92267 15.9467 3.16267 16.1173 3.376 16.288C3.58933 16.4533 3.75733 16.6373 3.88 16.84C4.00267 17.0427 4.064 17.288 4.064 17.576C4.064 17.9227 3.98133 18.2107 3.816 18.44C3.656 18.664 3.44 18.832 3.168 18.944C2.896 19.056 2.59733 19.112 2.272 19.112C1.97333 19.112 1.736 19.08 1.56 19.016C1.384 18.952 1.23467 18.8853 1.112 18.816C0.994667 18.7413 0.904 18.704 0.84 18.704C0.786667 18.704 0.746667 18.7333 0.72 18.792C0.698667 18.8507 0.68 18.9387 0.664 19.056H0.48C0.490667 18.9387 0.496 18.8027 0.496 18.648C0.501333 18.488 0.504 18.28 0.504 18.024C0.509333 17.768 0.512 17.4453 0.512 17.056H0.696C0.717333 17.3867 0.776 17.696 0.872 17.984C0.973333 18.272 1.12533 18.504 1.328 18.68C1.536 18.8507 1.81067 18.936 2.152 18.936C2.33333 18.936 2.50133 18.9013 2.656 18.832C2.81067 18.7627 2.936 18.6533 3.032 18.504C3.128 18.3547 3.176 18.1627 3.176 17.928C3.176 17.7093 3.12267 17.5173 3.016 17.352C2.91467 17.1867 2.77067 17.0347 2.584 16.896C2.40267 16.752 2.18933 16.6053 1.944 16.456C1.69333 16.296 1.45867 16.136 1.24 15.976C1.02133 15.816 0.845333 15.6293 0.712 15.416C0.584 15.2027 0.52 14.9493 0.52 14.656C0.52 14.3307 0.594667 14.064 0.744 13.856C0.898667 13.648 1.096 13.4933 1.336 13.392C1.58133 13.2907 1.84267 13.24 2.12 13.24ZM5.7815 19.056C5.5575 19.056 5.3655 19.0133 5.2055 18.928C5.0455 18.8427 4.9255 18.7253 4.8455 18.576C4.7655 18.4267 4.7255 18.256 4.7255 18.064C4.7255 17.8293 4.77883 17.64 4.8855 17.496C4.99217 17.3467 5.12817 17.2267 5.2935 17.136C5.46417 17.0453 5.64283 16.9707 5.8295 16.912C6.0215 16.848 6.20017 16.7893 6.3655 16.736C6.53617 16.6773 6.67483 16.6107 6.7815 16.536C6.8935 16.4613 6.9495 16.3627 6.9495 16.24V15.696C6.9495 15.504 6.9175 15.352 6.8535 15.24C6.79483 15.1227 6.71217 15.04 6.6055 14.992C6.50417 14.944 6.3815 14.92 6.2375 14.92C6.11483 14.92 5.98417 14.9387 5.8455 14.976C5.70683 15.008 5.5975 15.0747 5.5175 15.176C5.63483 15.208 5.73083 15.272 5.8055 15.368C5.8855 15.4587 5.9255 15.5733 5.9255 15.712C5.9255 15.8613 5.87483 15.9787 5.7735 16.064C5.6775 16.1493 5.55483 16.192 5.4055 16.192C5.24017 16.192 5.1175 16.1413 5.0375 16.04C4.9575 15.9333 4.9175 15.8107 4.9175 15.672C4.9175 15.528 4.95217 15.4107 5.0215 15.32C5.09617 15.2293 5.19217 15.144 5.3095 15.064C5.4375 14.9787 5.60017 14.9067 5.7975 14.848C6.00017 14.7893 6.22417 14.76 6.4695 14.76C6.69883 14.76 6.89617 14.7867 7.0615 14.84C7.23217 14.888 7.3735 14.968 7.4855 15.08C7.61883 15.2027 7.70683 15.3573 7.7495 15.544C7.79217 15.7253 7.8135 15.9467 7.8135 16.208V18.416C7.8135 18.5493 7.8295 18.6453 7.8615 18.704C7.89883 18.7573 7.9575 18.784 8.0375 18.784C8.09083 18.784 8.1415 18.7707 8.1895 18.744C8.24283 18.7173 8.30417 18.6773 8.3735 18.624L8.4535 18.76C8.3415 18.8507 8.22683 18.9227 8.1095 18.976C7.9975 19.0293 7.8535 19.056 7.6775 19.056C7.50683 19.056 7.36817 19.0293 7.2615 18.976C7.15483 18.9227 7.07483 18.8453 7.0215 18.744C6.9735 18.6427 6.9495 18.5173 6.9495 18.368C6.81083 18.592 6.6455 18.7627 6.4535 18.88C6.2615 18.9973 6.0375 19.056 5.7815 19.056ZM6.1655 18.672C6.31483 18.672 6.4535 18.6293 6.5815 18.544C6.71483 18.4587 6.8375 18.3307 6.9495 18.16V16.568C6.89083 16.6533 6.8055 16.728 6.6935 16.792C6.5815 16.8507 6.4615 16.912 6.3335 16.976C6.2055 17.04 6.08283 17.1147 5.9655 17.2C5.8535 17.28 5.76017 17.384 5.6855 17.512C5.61083 17.64 5.5735 17.8027 5.5735 18C5.5735 18.208 5.62683 18.3733 5.7335 18.496C5.84017 18.6133 5.98417 18.672 6.1655 18.672ZM11.4766 14.76C11.6899 14.76 11.8632 14.7893 11.9966 14.848C12.1352 14.9013 12.2499 14.976 12.3406 15.072C12.4366 15.1733 12.5032 15.304 12.5406 15.464C12.5832 15.624 12.6046 15.84 12.6046 16.112V18.256C12.6046 18.48 12.6472 18.632 12.7326 18.712C12.8232 18.792 12.9726 18.832 13.1806 18.832V19C13.0899 18.9947 12.9486 18.9893 12.7566 18.984C12.5646 18.9733 12.3752 18.968 12.1886 18.968C12.0072 18.968 11.8259 18.9733 11.6446 18.984C11.4686 18.9893 11.3352 18.9947 11.2446 19V18.832C11.4259 18.832 11.5539 18.792 11.6286 18.712C11.7032 18.632 11.7406 18.48 11.7406 18.256V15.888C11.7406 15.7333 11.7272 15.5947 11.7006 15.472C11.6739 15.344 11.6179 15.2427 11.5326 15.168C11.4472 15.088 11.3192 15.048 11.1486 15.048C10.9512 15.048 10.7752 15.104 10.6206 15.216C10.4712 15.328 10.3512 15.4827 10.2606 15.68C10.1752 15.872 10.1326 16.088 10.1326 16.328V18.256C10.1326 18.48 10.1699 18.632 10.2446 18.712C10.3246 18.792 10.4526 18.832 10.6286 18.832V19C10.5432 18.9947 10.4126 18.9893 10.2366 18.984C10.0659 18.9733 9.88723 18.968 9.70056 18.968C9.51923 18.968 9.3299 18.9733 9.13256 18.984C8.93523 18.9893 8.78856 18.9947 8.69256 19V18.832C8.90056 18.832 9.04723 18.792 9.13256 18.712C9.22323 18.632 9.26856 18.48 9.26856 18.256V15.744C9.26856 15.504 9.22856 15.328 9.14856 15.216C9.06856 15.0987 8.91656 15.04 8.69256 15.04V14.872C8.86323 14.888 9.02856 14.896 9.18856 14.896C9.3699 14.896 9.5379 14.888 9.69256 14.872C9.85256 14.8507 9.99923 14.8213 10.1326 14.784V15.656C10.2712 15.3253 10.4606 15.0933 10.7006 14.96C10.9459 14.8267 11.2046 14.76 11.4766 14.76ZM22.058 13.336V13.496C21.8767 13.5013 21.7407 13.5227 21.65 13.56C21.5593 13.592 21.498 13.656 21.466 13.752C21.4393 13.8427 21.426 13.9867 21.426 14.184V18.152C21.426 18.344 21.4393 18.488 21.466 18.584C21.498 18.68 21.5593 18.744 21.65 18.776C21.7407 18.808 21.8767 18.8293 22.058 18.84V19C21.9247 18.9893 21.7593 18.984 21.562 18.984C21.3647 18.9787 21.1647 18.976 20.962 18.976C20.738 18.976 20.5273 18.9787 20.33 18.984C20.1327 18.984 19.9753 18.9893 19.858 19V18.84C20.0393 18.8293 20.1753 18.808 20.266 18.776C20.362 18.744 20.426 18.68 20.458 18.584C20.49 18.488 20.506 18.344 20.506 18.152V13.776L20.546 13.792L18.578 19.032H18.45L16.386 13.848V17.944C16.386 18.168 16.402 18.344 16.434 18.472C16.466 18.5947 16.5353 18.6827 16.642 18.736C16.7487 18.7893 16.9113 18.824 17.13 18.84V19C17.0287 18.9893 16.898 18.984 16.738 18.984C16.5833 18.9787 16.4367 18.976 16.298 18.976C16.1647 18.976 16.0313 18.9787 15.898 18.984C15.7647 18.984 15.6553 18.9893 15.57 19V18.84C15.746 18.824 15.8793 18.792 15.97 18.744C16.0607 18.6907 16.122 18.6027 16.154 18.48C16.186 18.3573 16.202 18.1893 16.202 17.976V14.184C16.202 13.9867 16.186 13.8427 16.154 13.752C16.122 13.656 16.0607 13.592 15.97 13.56C15.8793 13.5227 15.746 13.5013 15.57 13.496V13.336C15.6553 13.3413 15.7647 13.3467 15.898 13.352C16.0313 13.3573 16.1647 13.36 16.298 13.36C16.4527 13.36 16.6073 13.3573 16.762 13.352C16.922 13.3467 17.058 13.3413 17.17 13.336L18.938 17.88L18.786 17.984L20.522 13.36C20.5913 13.36 20.6633 13.36 20.738 13.36C20.8127 13.36 20.8873 13.36 20.962 13.36C21.1647 13.36 21.3647 13.3573 21.562 13.352C21.7593 13.3467 21.9247 13.3413 22.058 13.336ZM23.6721 19.056C23.4481 19.056 23.2561 19.0133 23.0961 18.928C22.9361 18.8427 22.8161 18.7253 22.7361 18.576C22.6561 18.4267 22.6161 18.256 22.6161 18.064C22.6161 17.8293 22.6695 17.64 22.7761 17.496C22.8828 17.3467 23.0188 17.2267 23.1841 17.136C23.3548 17.0453 23.5335 16.9707 23.7201 16.912C23.9121 16.848 24.0908 16.7893 24.2561 16.736C24.4268 16.6773 24.5655 16.6107 24.6721 16.536C24.7841 16.4613 24.8401 16.3627 24.8401 16.24V15.696C24.8401 15.504 24.8081 15.352 24.7441 15.24C24.6855 15.1227 24.6028 15.04 24.4961 14.992C24.3948 14.944 24.2721 14.92 24.1281 14.92C24.0055 14.92 23.8748 14.9387 23.7361 14.976C23.5975 15.008 23.4881 15.0747 23.4081 15.176C23.5255 15.208 23.6215 15.272 23.6961 15.368C23.7761 15.4587 23.8161 15.5733 23.8161 15.712C23.8161 15.8613 23.7655 15.9787 23.6641 16.064C23.5681 16.1493 23.4455 16.192 23.2961 16.192C23.1308 16.192 23.0081 16.1413 22.9281 16.04C22.8481 15.9333 22.8081 15.8107 22.8081 15.672C22.8081 15.528 22.8428 15.4107 22.9121 15.32C22.9868 15.2293 23.0828 15.144 23.2001 15.064C23.3281 14.9787 23.4908 14.9067 23.6881 14.848C23.8908 14.7893 24.1148 14.76 24.3601 14.76C24.5895 14.76 24.7868 14.7867 24.9521 14.84C25.1228 14.888 25.2641 14.968 25.3761 15.08C25.5095 15.2027 25.5975 15.3573 25.6401 15.544C25.6828 15.7253 25.7041 15.9467 25.7041 16.208V18.416C25.7041 18.5493 25.7201 18.6453 25.7521 18.704C25.7895 18.7573 25.8481 18.784 25.9281 18.784C25.9815 18.784 26.0321 18.7707 26.0801 18.744C26.1335 18.7173 26.1948 18.6773 26.2641 18.624L26.3441 18.76C26.2321 18.8507 26.1175 18.9227 26.0001 18.976C25.8881 19.0293 25.7441 19.056 25.5681 19.056C25.3975 19.056 25.2588 19.0293 25.1521 18.976C25.0455 18.9227 24.9655 18.8453 24.9121 18.744C24.8641 18.6427 24.8401 18.5173 24.8401 18.368C24.7015 18.592 24.5361 18.7627 24.3441 18.88C24.1521 18.9973 23.9281 19.056 23.6721 19.056ZM24.0561 18.672C24.2055 18.672 24.3441 18.6293 24.4721 18.544C24.6055 18.4587 24.7281 18.3307 24.8401 18.16V16.568C24.7815 16.6533 24.6961 16.728 24.5841 16.792C24.4721 16.8507 24.3521 16.912 24.2241 16.976C24.0961 17.04 23.9735 17.1147 23.8561 17.2C23.7441 17.28 23.6508 17.384 23.5761 17.512C23.5015 17.64 23.4641 17.8027 23.4641 18C23.4641 18.208 23.5175 18.3733 23.6241 18.496C23.7308 18.6133 23.8748 18.672 24.0561 18.672ZM29.1592 14.76C29.3139 14.76 29.4445 14.792 29.5512 14.856C29.6632 14.92 29.7459 15.0027 29.7992 15.104C29.8579 15.2 29.8872 15.3093 29.8872 15.432C29.8872 15.5867 29.8392 15.72 29.7432 15.832C29.6525 15.9387 29.5299 15.992 29.3752 15.992C29.2419 15.992 29.1272 15.952 29.0312 15.872C28.9405 15.792 28.8952 15.6827 28.8952 15.544C28.8952 15.4267 28.9245 15.328 28.9832 15.248C29.0472 15.1627 29.1192 15.096 29.1992 15.048C29.1459 15.0053 29.0819 14.9867 29.0072 14.992C28.8632 14.9973 28.7299 15.0453 28.6072 15.136C28.4845 15.2213 28.3805 15.3333 28.2952 15.472C28.2099 15.6053 28.1432 15.7493 28.0952 15.904C28.0472 16.0587 28.0232 16.2027 28.0232 16.336V18.176C28.0232 18.4373 28.0952 18.6133 28.2392 18.704C28.3832 18.7893 28.5832 18.832 28.8392 18.832V19C28.7165 18.9947 28.5405 18.9893 28.3112 18.984C28.0872 18.9733 27.8499 18.968 27.5992 18.968C27.4072 18.968 27.2152 18.9733 27.0232 18.984C26.8312 18.9893 26.6845 18.9947 26.5832 19V18.832C26.7912 18.832 26.9379 18.792 27.0232 18.712C27.1139 18.632 27.1592 18.48 27.1592 18.256V15.744C27.1592 15.504 27.1192 15.328 27.0392 15.216C26.9592 15.0987 26.8072 15.04 26.5832 15.04V14.872C26.7539 14.888 26.9192 14.896 27.0792 14.896C27.2605 14.896 27.4285 14.888 27.5832 14.872C27.7432 14.8507 27.8899 14.8213 28.0232 14.784V15.704C28.0872 15.5493 28.1725 15.4 28.2792 15.256C28.3859 15.112 28.5139 14.9947 28.6632 14.904C28.8125 14.808 28.9779 14.76 29.1592 14.76ZM31.6004 13.552V14.88H32.7044V15.04H31.6004V18.184C31.6004 18.4027 31.6404 18.5573 31.7204 18.648C31.8004 18.7387 31.915 18.784 32.0644 18.784C32.203 18.784 32.3257 18.728 32.4324 18.616C32.5444 18.504 32.6404 18.3147 32.7204 18.048L32.8724 18.104C32.8084 18.3867 32.6937 18.6267 32.5284 18.824C32.3684 19.016 32.131 19.112 31.8164 19.112C31.635 19.112 31.483 19.088 31.3604 19.04C31.2377 18.9973 31.131 18.9333 31.0404 18.848C30.923 18.7253 30.843 18.5787 30.8004 18.408C30.7577 18.2373 30.7364 18.0107 30.7364 17.728V15.04H30.0004V14.88H30.7364V13.712C30.9017 13.7067 31.0564 13.6933 31.2004 13.672C31.3444 13.6453 31.4777 13.6053 31.6004 13.552ZM33.9807 12.856C34.146 12.856 34.2847 12.9093 34.3967 13.016C34.5087 13.1173 34.5647 13.2453 34.5647 13.4C34.5647 13.5547 34.5087 13.6853 34.3967 13.792C34.2847 13.8933 34.146 13.944 33.9807 13.944C33.8154 13.944 33.6767 13.8933 33.5647 13.792C33.4527 13.6853 33.3967 13.5547 33.3967 13.4C33.3967 13.2453 33.4527 13.1173 33.5647 13.016C33.6767 12.9093 33.8154 12.856 33.9807 12.856ZM34.4607 14.784V18.256C34.4607 18.48 34.5034 18.632 34.5887 18.712C34.6794 18.792 34.8287 18.832 35.0367 18.832V19C34.946 18.9947 34.8047 18.9893 34.6127 18.984C34.426 18.9733 34.234 18.968 34.0367 18.968C33.85 18.968 33.658 18.9733 33.4607 18.984C33.2634 18.9893 33.1167 18.9947 33.0207 19V18.832C33.2287 18.832 33.3754 18.792 33.4607 18.712C33.5514 18.632 33.5967 18.48 33.5967 18.256V15.744C33.5967 15.504 33.5567 15.328 33.4767 15.216C33.3967 15.0987 33.2447 15.04 33.0207 15.04V14.872C33.1914 14.888 33.3567 14.896 33.5167 14.896C33.698 14.896 33.866 14.888 34.0207 14.872C34.1807 14.8507 34.3274 14.8213 34.4607 14.784ZM38.2031 14.76C38.4165 14.76 38.5898 14.7893 38.7231 14.848C38.8618 14.9013 38.9765 14.976 39.0671 15.072C39.1631 15.1733 39.2298 15.304 39.2671 15.464C39.3098 15.624 39.3311 15.84 39.3311 16.112V18.256C39.3311 18.48 39.3738 18.632 39.4591 18.712C39.5498 18.792 39.6991 18.832 39.9071 18.832V19C39.8165 18.9947 39.6751 18.9893 39.4831 18.984C39.2911 18.9733 39.1018 18.968 38.9151 18.968C38.7338 18.968 38.5525 18.9733 38.3711 18.984C38.1951 18.9893 38.0618 18.9947 37.9711 19V18.832C38.1525 18.832 38.2805 18.792 38.3551 18.712C38.4298 18.632 38.4671 18.48 38.4671 18.256V15.888C38.4671 15.7333 38.4538 15.5947 38.4271 15.472C38.4005 15.344 38.3445 15.2427 38.2591 15.168C38.1738 15.088 38.0458 15.048 37.8751 15.048C37.6778 15.048 37.5018 15.104 37.3471 15.216C37.1978 15.328 37.0778 15.4827 36.9871 15.68C36.9018 15.872 36.8591 16.088 36.8591 16.328V18.256C36.8591 18.48 36.8965 18.632 36.9711 18.712C37.0511 18.792 37.1791 18.832 37.3551 18.832V19C37.2698 18.9947 37.1391 18.9893 36.9631 18.984C36.7925 18.9733 36.6138 18.968 36.4271 18.968C36.2458 18.968 36.0565 18.9733 35.8591 18.984C35.6618 18.9893 35.5151 18.9947 35.4191 19V18.832C35.6271 18.832 35.7738 18.792 35.8591 18.712C35.9498 18.632 35.9951 18.48 35.9951 18.256V15.744C35.9951 15.504 35.9551 15.328 35.8751 15.216C35.7951 15.0987 35.6431 15.04 35.4191 15.04V14.872C35.5898 14.888 35.7551 14.896 35.9151 14.896C36.0965 14.896 36.2645 14.888 36.4191 14.872C36.5791 14.8507 36.7258 14.8213 36.8591 14.784V15.656C36.9978 15.3253 37.1871 15.0933 37.4271 14.96C37.6725 14.8267 37.9311 14.76 38.2031 14.76ZM45.9366 12.728V18.128C45.9366 18.368 45.9766 18.5467 46.0566 18.664C46.1419 18.776 46.2939 18.832 46.5126 18.832V19C46.3472 18.984 46.1819 18.976 46.0166 18.976C45.8352 18.976 45.6646 18.984 45.5046 19C45.3499 19.016 45.2059 19.0453 45.0726 19.088V13.688C45.0726 13.448 45.0299 13.272 44.9446 13.16C44.8646 13.0427 44.7152 12.984 44.4966 12.984V12.816C44.6672 12.832 44.8326 12.84 44.9926 12.84C45.1686 12.84 45.3366 12.832 45.4966 12.816C45.6566 12.7947 45.8032 12.7653 45.9366 12.728ZM44.1366 14.76C44.3712 14.76 44.5846 14.8107 44.7766 14.912C44.9739 15.0133 45.1126 15.184 45.1926 15.424L45.0966 15.512C45.0219 15.32 44.9126 15.1813 44.7686 15.096C44.6246 15.0053 44.4619 14.96 44.2806 14.96C43.9766 14.96 43.7286 15.1227 43.5366 15.448C43.3446 15.768 43.2512 16.264 43.2566 16.936C43.2566 17.3787 43.2939 17.7413 43.3686 18.024C43.4432 18.3013 43.5526 18.5067 43.6966 18.64C43.8459 18.7733 44.0246 18.84 44.2326 18.84C44.4406 18.84 44.6272 18.752 44.7926 18.576C44.9632 18.4 45.0646 18.1467 45.0966 17.816L45.1686 17.984C45.1152 18.3467 44.9872 18.6267 44.7846 18.824C44.5819 19.016 44.3099 19.112 43.9686 19.112C43.6432 19.112 43.3552 19.0347 43.1046 18.88C42.8592 18.72 42.6699 18.48 42.5366 18.16C42.4032 17.8347 42.3366 17.4267 42.3366 16.936C42.3366 16.4507 42.4166 16.048 42.5766 15.728C42.7419 15.4027 42.9606 15.16 43.2326 15C43.5046 14.84 43.8059 14.76 44.1366 14.76ZM48.8719 14.76C49.3412 14.76 49.7092 14.9013 49.9759 15.184C50.2425 15.4667 50.3759 15.9147 50.3759 16.528H47.6159L47.5999 16.376H49.5279C49.5332 16.1147 49.5119 15.8747 49.4639 15.656C49.4159 15.432 49.3412 15.2533 49.2399 15.12C49.1385 14.9867 49.0052 14.92 48.8399 14.92C48.6105 14.92 48.4105 15.0427 48.2399 15.288C48.0745 15.528 47.9732 15.9147 47.9359 16.448L47.9599 16.488C47.9545 16.5627 47.9492 16.6453 47.9439 16.736C47.9385 16.8213 47.9359 16.9067 47.9359 16.992C47.9359 17.36 47.9919 17.6693 48.1039 17.92C48.2159 18.1707 48.3625 18.36 48.5439 18.488C48.7252 18.6107 48.9092 18.672 49.0959 18.672C49.2399 18.672 49.3785 18.6507 49.5119 18.608C49.6505 18.56 49.7812 18.4827 49.9039 18.376C50.0265 18.264 50.1359 18.112 50.2319 17.92L50.3919 17.984C50.3279 18.1653 50.2292 18.344 50.0959 18.52C49.9625 18.696 49.7919 18.84 49.5839 18.952C49.3759 19.0587 49.1332 19.112 48.8559 19.112C48.4825 19.112 48.1572 19.0293 47.8799 18.864C47.6025 18.6933 47.3892 18.4507 47.2399 18.136C47.0905 17.8213 47.0159 17.448 47.0159 17.016C47.0159 16.5413 47.0932 16.136 47.2479 15.8C47.4025 15.464 47.6185 15.208 47.8959 15.032C48.1785 14.8507 48.5039 14.76 48.8719 14.76ZM52.9761 13.336C53.0987 13.3413 53.2561 13.3467 53.4481 13.352C53.6454 13.3573 53.8401 13.36 54.0321 13.36C54.2881 13.36 54.5307 13.3573 54.7601 13.352C54.9947 13.3467 55.1601 13.344 55.2561 13.344C55.9334 13.344 56.4401 13.4907 56.7761 13.784C57.1121 14.0773 57.2801 14.456 57.2801 14.92C57.2801 15.112 57.2454 15.3147 57.1761 15.528C57.1121 15.736 56.9974 15.9307 56.8321 16.112C56.6667 16.288 56.4427 16.432 56.1601 16.544C55.8774 16.656 55.5174 16.712 55.0801 16.712H54.2961V16.552H55.0001C55.3574 16.552 55.6294 16.48 55.8161 16.336C56.0081 16.192 56.1361 16.0027 56.2001 15.768C56.2694 15.5333 56.3041 15.28 56.3041 15.008C56.3041 14.5013 56.2134 14.1227 56.0321 13.872C55.8507 13.6213 55.5361 13.496 55.0881 13.496C54.8587 13.496 54.7067 13.5413 54.6321 13.632C54.5627 13.7227 54.5281 13.9067 54.5281 14.184V18.136C54.5281 18.3333 54.5494 18.4827 54.5921 18.584C54.6347 18.68 54.7147 18.744 54.8321 18.776C54.9494 18.808 55.1227 18.8267 55.3521 18.832V19C55.2081 18.9893 55.0214 18.984 54.7921 18.984C54.5627 18.9787 54.3254 18.976 54.0801 18.976C53.8667 18.976 53.6614 18.9787 53.4641 18.984C53.2721 18.984 53.1094 18.9893 52.9761 19V18.84C53.1574 18.8293 53.2934 18.808 53.3841 18.776C53.4747 18.744 53.5334 18.68 53.5601 18.584C53.5921 18.488 53.6081 18.344 53.6081 18.152V14.184C53.6081 13.9867 53.5921 13.8427 53.5601 13.752C53.5334 13.656 53.4721 13.592 53.3761 13.56C53.2854 13.5227 53.1521 13.5013 52.9761 13.496V13.336ZM59.6066 14.76C59.964 14.76 60.2813 14.8347 60.5586 14.984C60.836 15.1333 61.0573 15.368 61.2226 15.688C61.388 16.008 61.4706 16.4267 61.4706 16.944C61.4706 17.4613 61.388 17.88 61.2226 18.2C61.0573 18.5147 60.836 18.7467 60.5586 18.896C60.2813 19.04 59.964 19.112 59.6066 19.112C59.2546 19.112 58.9373 19.04 58.6546 18.896C58.372 18.7467 58.148 18.5147 57.9826 18.2C57.8226 17.88 57.7426 17.4613 57.7426 16.944C57.7426 16.4267 57.8226 16.008 57.9826 15.688C58.148 15.368 58.372 15.1333 58.6546 14.984C58.9373 14.8347 59.2546 14.76 59.6066 14.76ZM59.6066 14.92C59.3293 14.92 59.1026 15.08 58.9266 15.4C58.7506 15.7147 58.6626 16.2293 58.6626 16.944C58.6626 17.6587 58.7506 18.1733 58.9266 18.488C59.1026 18.7973 59.3293 18.952 59.6066 18.952C59.8786 18.952 60.1026 18.7973 60.2786 18.488C60.46 18.1733 60.5506 17.6587 60.5506 16.944C60.5506 16.2293 60.46 15.7147 60.2786 15.4C60.1026 15.08 59.8786 14.92 59.6066 14.92ZM64.6123 14.76C64.767 14.76 64.8976 14.792 65.0043 14.856C65.1163 14.92 65.199 15.0027 65.2523 15.104C65.311 15.2 65.3403 15.3093 65.3403 15.432C65.3403 15.5867 65.2923 15.72 65.1963 15.832C65.1056 15.9387 64.983 15.992 64.8283 15.992C64.695 15.992 64.5803 15.952 64.4843 15.872C64.3936 15.792 64.3483 15.6827 64.3483 15.544C64.3483 15.4267 64.3776 15.328 64.4363 15.248C64.5003 15.1627 64.5723 15.096 64.6523 15.048C64.599 15.0053 64.535 14.9867 64.4603 14.992C64.3163 14.9973 64.183 15.0453 64.0603 15.136C63.9376 15.2213 63.8336 15.3333 63.7483 15.472C63.663 15.6053 63.5963 15.7493 63.5483 15.904C63.5003 16.0587 63.4763 16.2027 63.4763 16.336V18.176C63.4763 18.4373 63.5483 18.6133 63.6923 18.704C63.8363 18.7893 64.0363 18.832 64.2923 18.832V19C64.1696 18.9947 63.9936 18.9893 63.7643 18.984C63.5403 18.9733 63.303 18.968 63.0523 18.968C62.8603 18.968 62.6683 18.9733 62.4763 18.984C62.2843 18.9893 62.1376 18.9947 62.0363 19V18.832C62.2443 18.832 62.391 18.792 62.4763 18.712C62.567 18.632 62.6123 18.48 62.6123 18.256V15.744C62.6123 15.504 62.5723 15.328 62.4923 15.216C62.4123 15.0987 62.2603 15.04 62.0363 15.04V14.872C62.207 14.888 62.3723 14.896 62.5323 14.896C62.7136 14.896 62.8816 14.888 63.0363 14.872C63.1963 14.8507 63.343 14.8213 63.4763 14.784V15.704C63.5403 15.5493 63.6256 15.4 63.7323 15.256C63.839 15.112 63.967 14.9947 64.1163 14.904C64.2656 14.808 64.431 14.76 64.6123 14.76ZM68.2295 14.76C68.3842 14.76 68.5148 14.792 68.6215 14.856C68.7335 14.92 68.8162 15.0027 68.8695 15.104C68.9282 15.2 68.9575 15.3093 68.9575 15.432C68.9575 15.5867 68.9095 15.72 68.8135 15.832C68.7228 15.9387 68.6002 15.992 68.4455 15.992C68.3122 15.992 68.1975 15.952 68.1015 15.872C68.0108 15.792 67.9655 15.6827 67.9655 15.544C67.9655 15.4267 67.9948 15.328 68.0535 15.248C68.1175 15.1627 68.1895 15.096 68.2695 15.048C68.2162 15.0053 68.1522 14.9867 68.0775 14.992C67.9335 14.9973 67.8002 15.0453 67.6775 15.136C67.5548 15.2213 67.4508 15.3333 67.3655 15.472C67.2802 15.6053 67.2135 15.7493 67.1655 15.904C67.1175 16.0587 67.0935 16.2027 67.0935 16.336V18.176C67.0935 18.4373 67.1655 18.6133 67.3095 18.704C67.4535 18.7893 67.6535 18.832 67.9095 18.832V19C67.7868 18.9947 67.6108 18.9893 67.3815 18.984C67.1575 18.9733 66.9202 18.968 66.6695 18.968C66.4775 18.968 66.2855 18.9733 66.0935 18.984C65.9015 18.9893 65.7548 18.9947 65.6535 19V18.832C65.8615 18.832 66.0082 18.792 66.0935 18.712C66.1842 18.632 66.2295 18.48 66.2295 18.256V15.744C66.2295 15.504 66.1895 15.328 66.1095 15.216C66.0295 15.0987 65.8775 15.04 65.6535 15.04V14.872C65.8242 14.888 65.9895 14.896 66.1495 14.896C66.3308 14.896 66.4988 14.888 66.6535 14.872C66.8135 14.8507 66.9602 14.8213 67.0935 14.784V15.704C67.1575 15.5493 67.2428 15.4 67.3495 15.256C67.4562 15.112 67.5842 14.9947 67.7335 14.904C67.8828 14.808 68.0482 14.76 68.2295 14.76ZM71.1141 14.76C71.5834 14.76 71.9514 14.9013 72.2181 15.184C72.4847 15.4667 72.6181 15.9147 72.6181 16.528H69.8581L69.8421 16.376H71.7701C71.7754 16.1147 71.7541 15.8747 71.7061 15.656C71.6581 15.432 71.5834 15.2533 71.4821 15.12C71.3807 14.9867 71.2474 14.92 71.0821 14.92C70.8527 14.92 70.6527 15.0427 70.4821 15.288C70.3167 15.528 70.2154 15.9147 70.1781 16.448L70.2021 16.488C70.1967 16.5627 70.1914 16.6453 70.1861 16.736C70.1807 16.8213 70.1781 16.9067 70.1781 16.992C70.1781 17.36 70.2341 17.6693 70.3461 17.92C70.4581 18.1707 70.6047 18.36 70.7861 18.488C70.9674 18.6107 71.1514 18.672 71.3381 18.672C71.4821 18.672 71.6207 18.6507 71.7541 18.608C71.8927 18.56 72.0234 18.4827 72.1461 18.376C72.2687 18.264 72.3781 18.112 72.4741 17.92L72.6341 17.984C72.5701 18.1653 72.4714 18.344 72.3381 18.52C72.2047 18.696 72.0341 18.84 71.8261 18.952C71.6181 19.0587 71.3754 19.112 71.0981 19.112C70.7247 19.112 70.3994 19.0293 70.1221 18.864C69.8447 18.6933 69.6314 18.4507 69.4821 18.136C69.3327 17.8213 69.2581 17.448 69.2581 17.016C69.2581 16.5413 69.3354 16.136 69.4901 15.8C69.6447 15.464 69.8607 15.208 70.1381 15.032C70.4207 14.8507 70.7461 14.76 71.1141 14.76ZM74.6571 14.76C74.8705 14.76 75.0545 14.7947 75.2091 14.864C75.3691 14.928 75.4838 14.9867 75.5531 15.04C75.7291 15.1787 75.8385 15.088 75.8811 14.768H76.0571C76.0465 14.9173 76.0385 15.0987 76.0331 15.312C76.0278 15.52 76.0251 15.7973 76.0251 16.144H75.8491C75.8171 15.9467 75.7611 15.7547 75.6811 15.568C75.6065 15.3813 75.4945 15.2267 75.3451 15.104C75.2011 14.9813 75.0118 14.92 74.7771 14.92C74.6011 14.92 74.4545 14.9707 74.3371 15.072C74.2198 15.168 74.1611 15.312 74.1611 15.504C74.1611 15.664 74.2091 15.8027 74.3051 15.92C74.4011 16.0373 74.5238 16.1467 74.6731 16.248C74.8278 16.3493 74.9931 16.4587 75.1691 16.576C75.3665 16.7093 75.5425 16.8427 75.6971 16.976C75.8571 17.104 75.9825 17.248 76.0731 17.408C76.1691 17.568 76.2171 17.7547 76.2171 17.968C76.2171 18.2133 76.1505 18.4213 76.0171 18.592C75.8891 18.7627 75.7185 18.8933 75.5051 18.984C75.2918 19.0693 75.0571 19.112 74.8011 19.112C74.6731 19.112 74.5531 19.0987 74.4411 19.072C74.3291 19.0507 74.2251 19.0213 74.1291 18.984C74.0705 18.952 74.0118 18.92 73.9531 18.888C73.8998 18.8507 73.8465 18.816 73.7931 18.784C73.7398 18.7467 73.6918 18.752 73.6491 18.8C73.6065 18.848 73.5745 18.9333 73.5531 19.056H73.3771C73.3878 18.8853 73.3958 18.6773 73.4011 18.432C73.4065 18.1867 73.4091 17.8613 73.4091 17.456H73.5851C73.6225 17.7493 73.6785 18.008 73.7531 18.232C73.8278 18.456 73.9371 18.632 74.0811 18.76C74.2305 18.8827 74.4331 18.944 74.6891 18.944C74.7905 18.944 74.8918 18.9227 74.9931 18.88C75.0945 18.832 75.1771 18.7573 75.2411 18.656C75.3105 18.5547 75.3451 18.4187 75.3451 18.248C75.3451 18.0133 75.2625 17.8213 75.0971 17.672C74.9371 17.5173 74.7291 17.3547 74.4731 17.184C74.2918 17.056 74.1185 16.9307 73.9531 16.808C73.7931 16.68 73.6625 16.5387 73.5611 16.384C73.4598 16.224 73.4091 16.0347 73.4091 15.816C73.4091 15.576 73.4651 15.3787 73.5771 15.224C73.6945 15.0693 73.8491 14.9547 74.0411 14.88C74.2331 14.8 74.4385 14.76 74.6571 14.76Z" fill="white"/>
<path d="M19.376 3.336V3.496C19.1947 3.50133 19.056 3.52267 18.96 3.56C18.8693 3.592 18.808 3.656 18.776 3.752C18.744 3.84267 18.728 3.98667 18.728 4.184V8.152C18.728 8.344 18.744 8.488 18.776 8.584C18.808 8.68 18.8693 8.744 18.96 8.776C19.056 8.80267 19.1947 8.816 19.376 8.816H19.96C20.2107 8.816 20.4133 8.78933 20.568 8.736C20.728 8.68267 20.8533 8.6 20.944 8.488C21.04 8.37067 21.112 8.216 21.16 8.024C21.208 7.832 21.2453 7.59733 21.272 7.32H21.456C21.44 7.48533 21.432 7.704 21.432 7.976C21.432 8.07733 21.4347 8.224 21.44 8.416C21.4507 8.60267 21.4667 8.79733 21.488 9C21.216 8.98933 20.9093 8.984 20.568 8.984C20.2267 8.97867 19.9227 8.976 19.656 8.976C19.5387 8.976 19.3867 8.976 19.2 8.976C19.0187 8.976 18.8213 8.97867 18.608 8.984C18.3947 8.984 18.1787 8.98667 17.96 8.992C17.7413 8.992 17.5333 8.99467 17.336 9V8.84C17.5173 8.82933 17.6533 8.808 17.744 8.776C17.84 8.744 17.904 8.68 17.936 8.584C17.968 8.488 17.984 8.344 17.984 8.152V4.184C17.984 3.98667 17.968 3.84267 17.936 3.752C17.904 3.656 17.84 3.592 17.744 3.56C17.6533 3.52267 17.5173 3.50133 17.336 3.496V3.336C17.448 3.34133 17.5947 3.34667 17.776 3.352C17.9573 3.35733 18.152 3.36 18.36 3.36C18.5467 3.36 18.7307 3.35733 18.912 3.352C19.0987 3.34667 19.2533 3.34133 19.376 3.336ZM23.0711 9.056C22.8525 9.056 22.6631 9.016 22.5031 8.936C22.3431 8.85067 22.2205 8.73333 22.1351 8.584C22.0551 8.43467 22.0151 8.26133 22.0151 8.064C22.0151 7.82933 22.0685 7.63733 22.1751 7.488C22.2871 7.33867 22.4285 7.21867 22.5991 7.128C22.7698 7.03733 22.9485 6.96267 23.1351 6.904C23.3271 6.84 23.5085 6.78133 23.6791 6.728C23.8498 6.66933 23.9885 6.60267 24.0951 6.528C24.2071 6.45333 24.2631 6.35467 24.2631 6.232V5.736C24.2631 5.512 24.2285 5.34133 24.1591 5.224C24.0951 5.10667 24.0071 5.02933 23.8951 4.992C23.7831 4.94933 23.6578 4.928 23.5191 4.928C23.3858 4.928 23.2418 4.94667 23.0871 4.984C22.9378 5.02133 22.8178 5.09867 22.7271 5.216C22.8285 5.23733 22.9165 5.29067 22.9911 5.376C23.0658 5.46133 23.1031 5.57067 23.1031 5.704C23.1031 5.83733 23.0605 5.944 22.9751 6.024C22.8898 6.09867 22.7805 6.136 22.6471 6.136C22.4925 6.136 22.3778 6.088 22.3031 5.992C22.2338 5.89067 22.1991 5.77867 22.1991 5.656C22.1991 5.51733 22.2338 5.40533 22.3031 5.32C22.3725 5.23467 22.4605 5.15467 22.5671 5.08C22.6898 4.99467 22.8471 4.92267 23.0391 4.864C23.2365 4.8 23.4578 4.768 23.7031 4.768C23.9218 4.768 24.1085 4.79467 24.2631 4.848C24.4178 4.896 24.5458 4.968 24.6471 5.064C24.7858 5.192 24.8765 5.34933 24.9191 5.536C24.9618 5.71733 24.9831 5.936 24.9831 6.192V8.416C24.9831 8.54933 25.0018 8.64533 25.0391 8.704C25.0818 8.76267 25.1458 8.792 25.2311 8.792C25.2898 8.792 25.3458 8.77867 25.3991 8.752C25.4525 8.72533 25.5165 8.68267 25.5911 8.624L25.6791 8.76C25.5671 8.84533 25.4605 8.91733 25.3591 8.976C25.2578 9.02933 25.1218 9.056 24.9511 9.056C24.7965 9.056 24.6685 9.02933 24.5671 8.976C24.4658 8.92267 24.3885 8.84533 24.3351 8.744C24.2871 8.63733 24.2631 8.504 24.2631 8.344C24.1191 8.584 23.9458 8.76267 23.7431 8.88C23.5458 8.99733 23.3218 9.056 23.0711 9.056ZM23.3591 8.736C23.5351 8.736 23.6978 8.68533 23.8471 8.584C24.0018 8.48267 24.1405 8.33067 24.2631 8.128V6.56C24.1991 6.65067 24.1058 6.728 23.9831 6.792C23.8605 6.85067 23.7271 6.912 23.5831 6.976C23.4391 7.03467 23.3005 7.10667 23.1671 7.192C23.0391 7.272 22.9325 7.37867 22.8471 7.512C22.7618 7.64533 22.7191 7.81867 22.7191 8.032C22.7191 8.24533 22.7751 8.416 22.8871 8.544C23.0045 8.672 23.1618 8.736 23.3591 8.736ZM30.1939 4.768C30.6313 4.768 30.9939 4.94933 31.2819 5.312C31.5699 5.66933 31.7139 6.21333 31.7139 6.944C31.7139 7.424 31.6313 7.82667 31.4659 8.152C31.3059 8.472 31.0899 8.712 30.8179 8.872C30.5459 9.032 30.2499 9.112 29.9299 9.112C29.6633 9.112 29.4046 9.03733 29.1539 8.888C28.9086 8.73333 28.7246 8.50667 28.6019 8.208L28.7619 8.296C28.8953 8.50933 29.0606 8.66933 29.2579 8.776C29.4553 8.87733 29.6579 8.928 29.8659 8.928C30.2233 8.928 30.4899 8.768 30.6659 8.448C30.8473 8.12267 30.9379 7.62133 30.9379 6.944C30.9379 6.512 30.9033 6.152 30.8339 5.864C30.7646 5.576 30.6579 5.36267 30.5139 5.224C30.3699 5.08 30.1859 5.008 29.9619 5.008C29.7166 5.008 29.4873 5.12 29.2739 5.344C29.0659 5.56267 28.9379 5.88533 28.8899 6.312L28.7939 6.2C28.8526 5.74667 29.0099 5.39467 29.2659 5.144C29.5273 4.89333 29.8366 4.768 30.1939 4.768ZM28.9459 2.736V8.584C28.8766 8.64267 28.8046 8.704 28.7299 8.768C28.6606 8.82667 28.5913 8.88533 28.5219 8.944C28.4526 9.00267 28.3806 9.064 28.3059 9.128L28.1699 9.072C28.1913 8.99733 28.2046 8.92267 28.2099 8.848C28.2206 8.768 28.2259 8.688 28.2259 8.608V3.696C28.2259 3.456 28.1833 3.28 28.0979 3.168C28.0126 3.05067 27.8526 2.992 27.6179 2.992V2.824C27.7886 2.84 27.9539 2.848 28.1139 2.848C28.2686 2.848 28.4153 2.84 28.5539 2.824C28.6979 2.80267 28.8286 2.77333 28.9459 2.736ZM33.2378 2.88C33.3764 2.88 33.4964 2.93067 33.5978 3.032C33.6991 3.13333 33.7498 3.25333 33.7498 3.392C33.7498 3.53067 33.6991 3.65067 33.5978 3.752C33.4964 3.85333 33.3764 3.904 33.2378 3.904C33.0991 3.904 32.9791 3.85333 32.8778 3.752C32.7764 3.65067 32.7258 3.53067 32.7258 3.392C32.7258 3.25333 32.7764 3.13333 32.8778 3.032C32.9791 2.93067 33.0991 2.88 33.2378 2.88ZM33.6538 4.792V8.256C33.6538 8.48 33.6991 8.632 33.7898 8.712C33.8858 8.792 34.0431 8.832 34.2618 8.832V9C34.1711 8.99467 34.0324 8.98933 33.8458 8.984C33.6644 8.97333 33.4804 8.968 33.2938 8.968C33.1124 8.968 32.9284 8.97333 32.7418 8.984C32.5551 8.98933 32.4164 8.99467 32.3258 9V8.832C32.5444 8.832 32.6991 8.792 32.7898 8.712C32.8858 8.632 32.9338 8.48 32.9338 8.256V5.752C32.9338 5.512 32.8911 5.336 32.8058 5.224C32.7204 5.10667 32.5604 5.048 32.3258 5.048V4.88C32.4964 4.896 32.6618 4.904 32.8218 4.904C32.9764 4.904 33.1231 4.896 33.2618 4.88C33.4058 4.85867 33.5364 4.82933 33.6538 4.792ZM36.6295 4.768C36.9708 4.768 37.2775 4.84267 37.5495 4.992C37.8215 5.14133 38.0375 5.376 38.1975 5.696C38.3628 6.016 38.4455 6.432 38.4455 6.944C38.4455 7.456 38.3628 7.872 38.1975 8.192C38.0375 8.50667 37.8215 8.73867 37.5495 8.888C37.2775 9.03733 36.9708 9.112 36.6295 9.112C36.2935 9.112 35.9868 9.03733 35.7095 8.888C35.4375 8.73867 35.2188 8.50667 35.0535 8.192C34.8935 7.872 34.8135 7.456 34.8135 6.944C34.8135 6.432 34.8935 6.016 35.0535 5.696C35.2188 5.376 35.4375 5.14133 35.7095 4.992C35.9868 4.84267 36.2935 4.768 36.6295 4.768ZM36.6295 4.928C36.3255 4.928 36.0748 5.08533 35.8775 5.4C35.6855 5.71467 35.5895 6.22933 35.5895 6.944C35.5895 7.65867 35.6855 8.17333 35.8775 8.488C36.0748 8.79733 36.3255 8.952 36.6295 8.952C36.9335 8.952 37.1815 8.79733 37.3735 8.488C37.5708 8.17333 37.6695 7.65867 37.6695 6.944C37.6695 6.22933 37.5708 5.71467 37.3735 5.4C37.1815 5.08533 36.9335 4.928 36.6295 4.928ZM40.5243 10.504C40.2416 10.504 39.975 10.4747 39.7243 10.416C39.4736 10.3573 39.271 10.264 39.1163 10.136C38.967 10.0133 38.8923 9.856 38.8923 9.664C38.8923 9.47733 38.967 9.31733 39.1163 9.184C39.2656 9.05067 39.4683 8.94933 39.7243 8.88L39.7723 9.008C39.655 9.04533 39.5616 9.12 39.4923 9.232C39.423 9.344 39.3883 9.46933 39.3883 9.608C39.3883 9.85333 39.5003 10.04 39.7243 10.168C39.9536 10.3013 40.2496 10.368 40.6123 10.368C40.8523 10.368 41.087 10.336 41.3163 10.272C41.5456 10.2133 41.735 10.112 41.8843 9.968C42.0336 9.824 42.1083 9.63467 42.1083 9.4C42.1083 9.224 42.0443 9.08 41.9163 8.968C41.7936 8.85067 41.5483 8.792 41.1803 8.792H40.5883C40.4176 8.792 40.2523 8.77867 40.0923 8.752C39.9323 8.72533 39.8016 8.66933 39.7003 8.584C39.599 8.49867 39.5483 8.368 39.5483 8.192C39.5483 8.01067 39.623 7.83733 39.7723 7.672C39.9216 7.50133 40.1963 7.328 40.5963 7.152L40.6923 7.224C40.511 7.32 40.3536 7.41867 40.2203 7.52C40.087 7.616 40.0203 7.73067 40.0203 7.864C40.0203 8.03467 40.1483 8.12 40.4043 8.12H41.4043C41.6283 8.12 41.8336 8.152 42.0203 8.216C42.2123 8.28 42.367 8.38133 42.4843 8.52C42.6016 8.65867 42.6603 8.84 42.6603 9.064C42.6603 9.31467 42.5803 9.54933 42.4203 9.768C42.2603 9.98667 42.0203 10.1627 41.7003 10.296C41.3856 10.4347 40.9936 10.504 40.5243 10.504ZM40.5643 7.296C40.303 7.296 40.0656 7.25333 39.8523 7.168C39.639 7.07733 39.471 6.93867 39.3483 6.752C39.2256 6.56533 39.1643 6.32533 39.1643 6.032C39.1643 5.73867 39.2256 5.49867 39.3483 5.312C39.471 5.12533 39.639 4.98933 39.8523 4.904C40.0656 4.81333 40.303 4.768 40.5643 4.768C40.831 4.768 41.0683 4.81333 41.2763 4.904C41.4896 4.98933 41.6576 5.12533 41.7803 5.312C41.903 5.49867 41.9643 5.73867 41.9643 6.032C41.9643 6.32533 41.903 6.56533 41.7803 6.752C41.6576 6.93867 41.4896 7.07733 41.2763 7.168C41.0683 7.25333 40.831 7.296 40.5643 7.296ZM40.5643 7.152C40.767 7.152 40.9243 7.072 41.0363 6.912C41.1536 6.752 41.2123 6.45867 41.2123 6.032C41.2123 5.60533 41.1536 5.312 41.0363 5.152C40.9243 4.992 40.767 4.912 40.5643 4.912C40.367 4.912 40.2096 4.992 40.0923 5.152C39.975 5.312 39.9163 5.60533 39.9163 6.032C39.9163 6.45867 39.975 6.752 40.0923 6.912C40.2096 7.072 40.367 7.152 40.5643 7.152ZM41.7163 5.432L41.5723 5.376C41.647 5.19467 41.775 5.03467 41.9563 4.896C42.1376 4.75733 42.327 4.688 42.5243 4.688C42.663 4.688 42.775 4.728 42.8603 4.808C42.9456 4.88267 42.9883 4.99733 42.9883 5.152C42.9883 5.31733 42.943 5.43467 42.8523 5.504C42.767 5.568 42.679 5.6 42.5883 5.6C42.5083 5.6 42.4336 5.57333 42.3643 5.52C42.295 5.46133 42.255 5.37067 42.2443 5.248C42.2336 5.12533 42.271 4.968 42.3563 4.776L42.4603 4.8C42.2363 4.88533 42.0763 4.976 41.9803 5.072C41.8843 5.16267 41.7963 5.28267 41.7163 5.432ZM45.7669 4.768C45.9109 4.768 46.0362 4.79733 46.1429 4.856C46.2549 4.91467 46.3402 4.992 46.3989 5.088C46.4629 5.17867 46.4949 5.28267 46.4949 5.4C46.4949 5.53333 46.4522 5.65067 46.3669 5.752C46.2869 5.85333 46.1775 5.904 46.0389 5.904C45.9269 5.904 45.8282 5.86933 45.7429 5.8C45.6575 5.72533 45.6149 5.62133 45.6149 5.488C45.6149 5.38667 45.6415 5.30133 45.6949 5.232C45.7535 5.15733 45.8175 5.09867 45.8869 5.056C45.8495 5.00267 45.7935 4.976 45.7189 4.976C45.5535 4.976 45.4015 5.02667 45.2629 5.128C45.1242 5.224 45.0069 5.34933 44.9109 5.504C44.8149 5.65867 44.7402 5.824 44.6869 6C44.6335 6.17067 44.6069 6.33067 44.6069 6.48V8.176C44.6069 8.43733 44.6815 8.61333 44.8309 8.704C44.9855 8.78933 45.1935 8.832 45.4549 8.832V9C45.3322 8.99467 45.1589 8.98933 44.9349 8.984C44.7109 8.97333 44.4735 8.968 44.2229 8.968C44.0415 8.968 43.8602 8.97333 43.6789 8.984C43.5029 8.98933 43.3695 8.99467 43.2789 9V8.832C43.4975 8.832 43.6522 8.792 43.7429 8.712C43.8389 8.632 43.8869 8.48 43.8869 8.256V5.752C43.8869 5.512 43.8442 5.336 43.7589 5.224C43.6735 5.10667 43.5135 5.048 43.2789 5.048V4.88C43.4495 4.896 43.6149 4.904 43.7749 4.904C43.9295 4.904 44.0762 4.896 44.2149 4.88C44.3589 4.85867 44.4895 4.82933 44.6069 4.792V5.792C44.6655 5.63733 44.7482 5.48267 44.8549 5.328C44.9669 5.168 45.1002 5.03467 45.2549 4.928C45.4095 4.82133 45.5802 4.768 45.7669 4.768ZM47.9774 9.056C47.7587 9.056 47.5694 9.016 47.4094 8.936C47.2494 8.85067 47.1267 8.73333 47.0414 8.584C46.9614 8.43467 46.9214 8.26133 46.9214 8.064C46.9214 7.82933 46.9747 7.63733 47.0814 7.488C47.1934 7.33867 47.3347 7.21867 47.5054 7.128C47.676 7.03733 47.8547 6.96267 48.0414 6.904C48.2334 6.84 48.4147 6.78133 48.5854 6.728C48.756 6.66933 48.8947 6.60267 49.0014 6.528C49.1134 6.45333 49.1694 6.35467 49.1694 6.232V5.736C49.1694 5.512 49.1347 5.34133 49.0654 5.224C49.0014 5.10667 48.9134 5.02933 48.8014 4.992C48.6894 4.94933 48.564 4.928 48.4254 4.928C48.292 4.928 48.148 4.94667 47.9934 4.984C47.844 5.02133 47.724 5.09867 47.6334 5.216C47.7347 5.23733 47.8227 5.29067 47.8974 5.376C47.972 5.46133 48.0094 5.57067 48.0094 5.704C48.0094 5.83733 47.9667 5.944 47.8814 6.024C47.796 6.09867 47.6867 6.136 47.5534 6.136C47.3987 6.136 47.284 6.088 47.2094 5.992C47.14 5.89067 47.1054 5.77867 47.1054 5.656C47.1054 5.51733 47.14 5.40533 47.2094 5.32C47.2787 5.23467 47.3667 5.15467 47.4734 5.08C47.596 4.99467 47.7534 4.92267 47.9454 4.864C48.1427 4.8 48.364 4.768 48.6094 4.768C48.828 4.768 49.0147 4.79467 49.1694 4.848C49.324 4.896 49.452 4.968 49.5534 5.064C49.692 5.192 49.7827 5.34933 49.8254 5.536C49.868 5.71733 49.8894 5.936 49.8894 6.192V8.416C49.8894 8.54933 49.908 8.64533 49.9454 8.704C49.988 8.76267 50.052 8.792 50.1374 8.792C50.196 8.792 50.252 8.77867 50.3054 8.752C50.3587 8.72533 50.4227 8.68267 50.4974 8.624L50.5854 8.76C50.4734 8.84533 50.3667 8.91733 50.2654 8.976C50.164 9.02933 50.028 9.056 49.8574 9.056C49.7027 9.056 49.5747 9.02933 49.4734 8.976C49.372 8.92267 49.2947 8.84533 49.2414 8.744C49.1934 8.63733 49.1694 8.504 49.1694 8.344C49.0254 8.584 48.852 8.76267 48.6494 8.88C48.452 8.99733 48.228 9.056 47.9774 9.056ZM48.2654 8.736C48.4414 8.736 48.604 8.68533 48.7534 8.584C48.908 8.48267 49.0467 8.33067 49.1694 8.128V6.56C49.1054 6.65067 49.012 6.728 48.8894 6.792C48.7667 6.85067 48.6334 6.912 48.4894 6.976C48.3454 7.03467 48.2067 7.10667 48.0734 7.192C47.9454 7.272 47.8387 7.37867 47.7534 7.512C47.668 7.64533 47.6254 7.81867 47.6254 8.032C47.6254 8.24533 47.6814 8.416 47.7934 8.544C47.9107 8.672 48.068 8.736 48.2654 8.736ZM53.5138 2.744C53.6631 2.744 53.8044 2.75467 53.9378 2.776C54.0711 2.79733 54.1938 2.82667 54.3058 2.864C54.4178 2.896 54.5111 2.936 54.5858 2.984C54.6711 3.03733 54.7378 3.10133 54.7858 3.176C54.8338 3.24533 54.8578 3.328 54.8578 3.424C54.8578 3.568 54.8071 3.69067 54.7057 3.792C54.6044 3.89333 54.4844 3.944 54.3458 3.944C54.2071 3.944 54.0871 3.89333 53.9858 3.792C53.8844 3.69067 53.8338 3.57067 53.8338 3.432C53.8338 3.336 53.8578 3.248 53.9058 3.168C53.9538 3.088 54.0178 3.02667 54.0978 2.984C54.0284 2.94133 53.9404 2.912 53.8338 2.896C53.7271 2.87467 53.6204 2.864 53.5138 2.864C53.2364 2.864 53.0044 2.92 52.8178 3.032C52.6311 3.144 52.4844 3.29333 52.3778 3.48C52.3031 3.61333 52.2471 3.784 52.2098 3.992C52.1778 4.2 52.1618 4.49867 52.1618 4.888H53.4498C53.6631 4.888 53.8471 4.88533 54.0018 4.88C54.1564 4.87467 54.2951 4.86667 54.4178 4.856C54.5404 4.84 54.6604 4.81867 54.7778 4.792V8.256C54.7778 8.48 54.8231 8.632 54.9138 8.712C55.0098 8.792 55.1671 8.832 55.3858 8.832V9C55.2951 8.99467 55.1564 8.98933 54.9698 8.984C54.7884 8.97333 54.6044 8.968 54.4178 8.968C54.2364 8.968 54.0524 8.97333 53.8658 8.984C53.6791 8.98933 53.5404 8.99467 53.4498 9V8.832C53.6684 8.832 53.8231 8.792 53.9138 8.712C54.0098 8.632 54.0578 8.48 54.0578 8.256V5.752C54.0578 5.512 54.0151 5.336 53.9298 5.224C53.8444 5.10667 53.6844 5.048 53.4498 5.048H52.1618V8.256C52.1618 8.48533 52.2231 8.64 52.3458 8.72C52.4684 8.79467 52.6364 8.832 52.8498 8.832V9C52.7431 8.99467 52.5911 8.98933 52.3938 8.984C52.2018 8.97333 52.0044 8.968 51.8018 8.968C51.6044 8.968 51.4151 8.97333 51.2338 8.984C51.0578 8.98933 50.9244 8.99467 50.8338 9V8.832C51.0524 8.832 51.2071 8.792 51.2978 8.712C51.3938 8.632 51.4418 8.48 51.4418 8.256V5.048H50.8018V4.888H51.4418C51.4418 4.54667 51.4844 4.24 51.5698 3.968C51.6604 3.696 51.8098 3.46133 52.0178 3.264C52.1724 3.12 52.3724 2.99733 52.6178 2.896C52.8631 2.79467 53.1618 2.744 53.5138 2.744ZM56.9305 9.056C56.7118 9.056 56.5225 9.016 56.3625 8.936C56.2025 8.85067 56.0798 8.73333 55.9945 8.584C55.9145 8.43467 55.8745 8.26133 55.8745 8.064C55.8745 7.82933 55.9278 7.63733 56.0345 7.488C56.1465 7.33867 56.2878 7.21867 56.4585 7.128C56.6292 7.03733 56.8078 6.96267 56.9945 6.904C57.1865 6.84 57.3678 6.78133 57.5385 6.728C57.7092 6.66933 57.8478 6.60267 57.9545 6.528C58.0665 6.45333 58.1225 6.35467 58.1225 6.232V5.736C58.1225 5.512 58.0878 5.34133 58.0185 5.224C57.9545 5.10667 57.8665 5.02933 57.7545 4.992C57.6425 4.94933 57.5172 4.928 57.3785 4.928C57.2452 4.928 57.1012 4.94667 56.9465 4.984C56.7972 5.02133 56.6772 5.09867 56.5865 5.216C56.6878 5.23733 56.7758 5.29067 56.8505 5.376C56.9252 5.46133 56.9625 5.57067 56.9625 5.704C56.9625 5.83733 56.9198 5.944 56.8345 6.024C56.7492 6.09867 56.6398 6.136 56.5065 6.136C56.3518 6.136 56.2372 6.088 56.1625 5.992C56.0932 5.89067 56.0585 5.77867 56.0585 5.656C56.0585 5.51733 56.0932 5.40533 56.1625 5.32C56.2318 5.23467 56.3198 5.15467 56.4265 5.08C56.5492 4.99467 56.7065 4.92267 56.8985 4.864C57.0958 4.8 57.3172 4.768 57.5625 4.768C57.7812 4.768 57.9678 4.79467 58.1225 4.848C58.2772 4.896 58.4052 4.968 58.5065 5.064C58.6452 5.192 58.7358 5.34933 58.7785 5.536C58.8212 5.71733 58.8425 5.936 58.8425 6.192V8.416C58.8425 8.54933 58.8612 8.64533 58.8985 8.704C58.9412 8.76267 59.0052 8.792 59.0905 8.792C59.1492 8.792 59.2052 8.77867 59.2585 8.752C59.3118 8.72533 59.3758 8.68267 59.4505 8.624L59.5385 8.76C59.4265 8.84533 59.3198 8.91733 59.2185 8.976C59.1172 9.02933 58.9812 9.056 58.8105 9.056C58.6558 9.056 58.5278 9.02933 58.4265 8.976C58.3252 8.92267 58.2478 8.84533 58.1945 8.744C58.1465 8.63733 58.1225 8.504 58.1225 8.344C57.9785 8.584 57.8052 8.76267 57.6025 8.88C57.4052 8.99733 57.1812 9.056 56.9305 9.056ZM57.2185 8.736C57.3945 8.736 57.5572 8.68533 57.7065 8.584C57.8612 8.48267 57.9998 8.33067 58.1225 8.128V6.56C58.0585 6.65067 57.9652 6.728 57.8425 6.792C57.7198 6.85067 57.5865 6.912 57.4425 6.976C57.2985 7.03467 57.1598 7.10667 57.0265 7.192C56.8985 7.272 56.7918 7.37867 56.7065 7.512C56.6212 7.64533 56.5785 7.81867 56.5785 8.032C56.5785 8.24533 56.6345 8.416 56.7465 8.544C56.8638 8.672 57.0212 8.736 57.2185 8.736Z" fill="white"/>
</svg>
