<svg width="28" height="36" viewBox="0 0 28 36" fill="none" xmlns="http://www.w3.org/2000/svg">
<path d="M24.4729 33.0653C21.2605 28.613 24.907 24.0881 27.1318 22.3822C19.9147 23.9815 19.5891 35.0484 22.7907 35.8801C25.3519 36.5454 24.9793 34.2808 24.4729 33.0653Z" fill="white"/>
<path d="M24.4661 2.93473C21.2455 7.38722 24.9013 11.9122 27.1318 13.6182C19.8963 12.0188 19.5699 0.951576 22.7796 0.119931C25.3474 -0.545384 24.9739 1.71925 24.4661 2.93473Z" fill="white"/>
<path d="M0 18.0961L27.9457 18.0961C19.5674 19.8361 16.677 26.327 16.2791 29.355C16.062 25.2097 17.7442 22.5101 18.6124 21.6785C15.6279 21.6145 13.2403 23.0858 10.2016 22.9579C7.77054 22.8555 2.3876 19.674 0 18.0961Z" fill="white"/>
<path d="M0 18.0961L28 18.0961C19.6054 16.3561 16.7094 9.86512 16.3107 6.83716C16.0932 10.9825 17.7786 13.6821 18.6485 14.5137C15.6583 14.5777 13.266 13.1063 10.2214 13.2343C7.78563 13.3366 2.39223 16.5181 0 18.0961Z" fill="white"/>
</svg>
